<svg xmlns="http://www.w3.org/2000/svg" height="512pt" version="1.1" viewBox="0 0 512 512" width="512pt">
<g id="surface1">
<path d="M 437.019531 74.980469 C 388.664062 26.628906 324.378906 0 256 0 C 187.617188 0 123.332031 26.628906 74.980469 74.980469 C 26.628906 123.332031 0 187.617188 0 256 C 0 324.378906 26.628906 388.667969 74.980469 437.019531 C 123.332031 485.371094 187.617188 512 256 512 C 324.378906 512 388.664062 485.371094 437.019531 437.019531 C 485.371094 388.667969 512 324.378906 512 256 C 512 187.621094 485.371094 123.332031 437.019531 74.980469 Z M 437.019531 74.980469 " style=" stroke:none;fill-rule:nonzero;fill:rgb(100%,81.960784%,16.862745%);fill-opacity:1;" />
<path d="M 256 0 L 256 512 C 324.378906 512 388.664062 485.371094 437.019531 437.019531 C 485.371094 388.667969 512 324.378906 512 256 C 512 187.621094 485.371094 123.332031 437.019531 74.980469 C 388.664062 26.628906 324.378906 0 256 0 Z M 256 0 " style=" stroke:none;fill-rule:nonzero;fill:rgb(100%,69.019608%,13.72549%);fill-opacity:1;" />
<path d="M 376.5 273.132812 L 135.5 273.132812 C 127.214844 273.132812 120.5 279.847656 120.5 288.132812 C 120.5 362.847656 181.285156 423.632812 256 423.632812 C 330.714844 423.632812 391.5 362.847656 391.5 288.132812 C 391.5 279.847656 384.78125 273.132812 376.5 273.132812 Z M 376.5 273.132812 " style=" stroke:none;fill-rule:nonzero;fill:rgb(100%,38.039216%,58.039216%);fill-opacity:1;" />
<path d="M 238.132812 144.140625 C 236.367188 138.710938 231.675781 134.753906 226.023438 133.933594 L 200.523438 130.226562 L 189.117188 107.121094 C 186.589844 102.003906 181.378906 98.761719 175.667969 98.761719 C 169.957031 98.761719 164.742188 102.003906 162.21875 107.121094 L 150.8125 130.226562 L 125.3125 133.933594 C 119.660156 134.753906 114.964844 138.710938 113.203125 144.140625 C 111.4375 149.570312 112.910156 155.53125 116.996094 159.519531 L 135.449219 177.507812 L 131.09375 202.902344 C 130.128906 208.53125 132.441406 214.21875 137.0625 217.574219 C 139.675781 219.472656 142.769531 220.4375 145.882812 220.4375 C 148.269531 220.4375 150.664062 219.871094 152.859375 218.714844 L 175.667969 206.726562 L 198.480469 218.714844 C 200.6875 219.875 203.128906 220.425781 205.5 220.4375 C 213.773438 220.425781 220.480469 213.714844 220.480469 205.4375 C 220.480469 204.289062 220.347656 203.164062 220.101562 202.089844 L 215.886719 177.507812 L 234.339844 159.515625 C 238.425781 155.53125 239.894531 149.570312 238.132812 144.140625 Z M 238.132812 144.140625 " style=" stroke:none;fill-rule:nonzero;fill:rgb(100%,55.686275%,11.372549%);fill-opacity:1;" />
<path d="M 398.800781 144.140625 C 397.03125 138.710938 392.339844 134.753906 386.691406 133.933594 L 361.191406 130.226562 L 349.785156 107.121094 C 347.257812 102.003906 342.042969 98.761719 336.335938 98.761719 C 330.625 98.761719 325.410156 102.003906 322.882812 107.121094 L 311.480469 130.226562 L 285.976562 133.933594 C 280.328125 134.753906 275.632812 138.710938 273.867188 144.140625 C 272.101562 149.570312 273.574219 155.53125 277.664062 159.519531 L 296.117188 177.507812 L 291.761719 202.902344 C 290.796875 208.53125 293.109375 214.21875 297.726562 217.574219 C 300.339844 219.472656 303.4375 220.4375 306.546875 220.4375 C 308.933594 220.4375 311.328125 219.871094 313.523438 218.714844 L 336.335938 206.726562 L 359.148438 218.714844 C 361.355469 219.875 363.71875 220.425781 366.167969 220.4375 C 374.441406 220.425781 381.144531 213.714844 381.144531 205.4375 C 381.144531 204.289062 381.015625 203.164062 380.769531 202.089844 L 376.554688 177.507812 L 395.007812 159.515625 C 399.09375 155.53125 400.5625 149.570312 398.800781 144.140625 Z M 398.800781 144.140625 " style=" stroke:none;fill-rule:nonzero;fill:rgb(100%,42.745098%,8.235294%);fill-opacity:1;" />
<path d="M 376.5 273.132812 L 256 273.132812 L 256 423.632812 C 330.714844 423.632812 391.5 362.847656 391.5 288.132812 C 391.5 279.847656 384.78125 273.132812 376.5 273.132812 Z M 376.5 273.132812 " style=" stroke:none;fill-rule:nonzero;fill:rgb(100%,22.352941%,69.411765%);fill-opacity:1;" />
</g>
</svg>