<svg width="285" height="246" viewBox="0 0 285 246" fill="none" xmlns="http://www.w3.org/2000/svg">
<path d="M2.9781 116.76L69.0348 4.91463C70.8337 1.86882 74.1078 0 77.6452 0H205.271C208.779 0 212.03 1.83733 213.839 4.84196L281.178 116.688C283.075 119.838 283.09 123.775 281.217 126.94L213.827 240.787C212.027 243.828 208.756 245.693 205.222 245.693H77.6945C74.1306 245.693 70.8361 243.796 69.0466 240.714L2.94063 126.867C1.12447 123.739 1.1388 119.874 2.9781 116.76Z" fill="#D32F2F" fill-opacity="0.8"/>
<path d="M158.25 111.851H85.95C84.9 111.851 84 110.954 84 109.908V100.793C84 95.8617 88.5 91.8272 97.8 88.3903C108 84.6546 109.8 81.8155 109.8 75.8384C109.8 74.4935 109.5 74.0452 108.9 73.1486C108 71.8038 106.8 70.1601 105.9 65.5278C105.9 65.2289 105.75 65.2289 105.75 65.2289C105.75 65.2289 105.6 65.0795 105.45 65.0795C103.35 64.0335 102.15 62.6887 101.85 58.0564C101.85 55.815 102.6 54.3207 103.2 53.5735C103.05 52.677 102.9 51.4815 102.6 49.9873C101.85 45.8033 100.05 34.5961 111.6 29.9639C120 26.527 127.05 28.1707 129.6 30.5616C131.4 30.711 135.15 31.1593 137.85 34.2973C142.2 39.2284 141 49.9873 140.4 53.4241C141.15 54.1712 141.9 55.5161 141.9 57.7575C141.6 62.5392 140.25 64.0335 138.3 64.9301C138.15 64.9301 138 65.0795 138 65.0795C138 65.0795 138 65.2289 137.85 65.3784C136.95 69.8612 135.75 71.6544 134.85 72.9992C134.25 73.8958 133.95 74.3441 133.95 75.6889C133.95 81.6661 135.75 84.5052 145.95 88.2409C155.25 91.6777 159.75 95.7123 159.75 100.643V109.759C160.05 110.954 159.3 111.851 158.25 111.851ZM87.75 108.115H156.3V100.793C156.3 96.9077 150.15 93.7697 145.05 91.9766C133.8 87.942 130.5 84.2063 130.5 75.9878C130.5 73.4475 131.25 72.2521 132 71.2061C132.75 70.1601 133.65 68.8152 134.4 65.0795C134.85 62.8381 136.05 62.2404 136.95 61.9415C137.55 61.6427 138.15 61.3438 138.45 57.907C138.45 56.4127 137.85 56.1138 137.85 55.9644C136.95 55.6655 136.8 54.9184 136.95 54.0218C137.55 50.7344 138.6 40.7227 135.45 36.987C133.35 34.5961 130.05 34.4467 129.3 34.4467C129.15 34.4467 128.85 34.4467 128.7 34.4467H128.4C127.95 34.2973 127.5 33.9984 127.35 33.5501C126.75 32.803 121.5 30.4121 113.25 33.5501C105.6 36.6881 105.45 43.1136 106.5 49.539C106.8 51.9298 107.25 54.0218 107.25 54.0218C107.4 54.9184 107.1 55.815 106.2 56.1138C106.2 56.1138 105.75 56.5621 105.75 58.0564C106.05 61.3438 106.65 61.6427 107.25 61.9415C108 62.3898 109.35 62.9875 109.8 65.0795C110.55 68.8152 111.45 70.1601 112.2 71.2061C112.95 72.2521 113.7 73.4475 113.7 75.9878C113.7 84.2063 110.25 87.942 99.15 91.9766C94.05 93.9192 87.9 96.9077 87.9 100.793V108.115H87.75Z" fill="white"/>
<path d="M201 106.62V110.057C201 111.103 200.1 112 199.05 112H167.4C166.35 112 165.45 111.103 165.45 110.057C165.45 109.011 166.35 108.115 167.4 108.115H197.25V106.62C197.25 103.034 191.55 100.046 186.6 98.4019C178.35 95.4133 174.75 92.5742 173.4 88.0913C173.25 87.4936 173.4 86.8959 173.7 86.4476C174 85.9993 174.45 85.8499 174.9 85.7005C183.15 83.9074 185.85 80.1716 186.75 78.2291C184.65 76.2865 180.6 71.5048 180.6 62.5391C180.6 50.8837 178.05 43.7111 165.6 43.7111C165.45 43.7111 165.45 43.7111 165.3 43.7111C165.15 43.7111 165.15 43.7111 165 43.7111C152.55 43.7111 150 50.8837 150 62.5391C150 71.5048 145.95 76.2865 143.85 78.2291C144.75 80.0222 147.45 83.9074 155.7 85.7005C156.6 85.8499 157.2 86.5971 157.2 87.4936C157.2 88.5396 156.45 89.4362 155.4 89.4362C155.25 89.4362 155.1 89.4362 154.95 89.4362C143.25 87.0453 140.4 80.6199 139.8 78.5279V78.3785C139.8 78.3785 139.8 78.2291 139.8 78.0797C139.8 78.0797 139.8 78.0796 139.8 77.9302C139.65 77.1831 139.95 76.4359 140.55 75.9877C140.7 75.8382 146.1 72.1025 146.1 62.5391C146.1 51.332 148.35 39.9754 164.85 39.9754C165 39.9754 165.15 39.9754 165.15 39.9754C165.3 39.9754 165.3 39.9754 165.45 39.9754C181.95 39.9754 184.2 51.332 184.2 62.5391C184.2 72.1025 189.6 75.8382 189.9 75.9877C190.5 76.4359 190.8 77.1831 190.65 77.9302C190.65 78.0796 190.65 78.0796 190.65 78.2291V78.3785V78.5279C190.05 80.3211 187.65 86.1488 177.75 88.8385C178.95 90.781 181.65 92.7236 187.8 94.965C196.8 97.9536 201 101.839 201 106.62Z" fill="white"/>
</svg>
