<svg width="112" height="123" viewBox="0 0 112 123" fill="none" xmlns="http://www.w3.org/2000/svg">
<path d="M111.983 110.29C110.486 98.2634 99.0566 91.9767 91.573 88.97L79.463 109.47L78.3745 95.3934L81.2319 88.8334H70.3466L73.0679 95.3934L71.9794 109.47L60.0055 88.97C52.3857 91.84 41.0922 98.1267 39.5955 110.29C39.3233 112.067 40.1397 113.707 41.5004 114.663C45.5824 117.533 55.9235 123 75.7892 123C95.655 123 105.996 117.533 110.078 114.663C111.439 113.707 112.119 112.067 111.983 110.29ZM98.1042 113.023H87.491V110.153H98.1042V113.023Z" fill="white"/>
<path d="M75.7891 84.46C85.7838 84.46 93.886 75.8937 93.886 65.3267C93.886 54.7596 85.7838 46.1934 75.7891 46.1934C65.7945 46.1934 57.6923 54.7596 57.6923 65.3267C57.6923 75.8937 65.7945 84.46 75.7891 84.46Z" fill="white"/>
<path d="M44.3577 92.7967H30.4789V87.74H51.4332C52.93 86.92 54.4267 86.2367 55.9234 85.5533L60.6858 83.3667C55.7874 78.9933 52.7939 72.57 52.7939 65.3267C52.7939 52.2067 62.9989 41.5467 75.6531 41.5467C77.6941 41.5467 79.599 41.82 81.504 42.3667V11.7533C81.504 10.5233 80.4154 9.43 79.1908 9.43H58.7808V3.00667C58.7808 1.36667 57.4202 0 55.7873 0H25.7166C24.0838 0 22.7231 1.36667 22.7231 3.00667V9.56667H2.31313C1.08853 9.56667 0 10.66 0 11.89V116.303C0 118.08 1.49673 119.447 3.12953 119.447H32.5199V95.3933H41.3643C42.4528 94.4367 43.4053 93.6167 44.3577 92.7967ZM67.353 26.5133H73.2039V39.9067H67.353V26.5133ZM59.7333 26.5133H65.5842V39.9067H59.7333V26.5133ZM40.5479 67.7867H34.697V54.3933H40.5479V67.7867ZM40.5479 40.0433H34.697V26.65H40.5479V40.0433ZM48.1676 67.7867H42.3167V54.3933H48.1676V67.7867ZM48.1676 40.0433H42.3167V26.65H48.1676V40.0433ZM15.5116 97.7167H9.7968V84.3233H15.6477V97.7167H15.5116ZM15.5116 67.7867H9.7968V54.3933H15.6477V67.7867H15.5116ZM15.5116 40.0433H9.7968V26.65H15.6477V40.0433H15.5116ZM23.1313 97.7167H17.2805V84.3233H23.1313V97.7167ZM23.1313 67.7867H17.2805V54.3933H23.1313V67.7867ZM23.1313 40.0433H17.2805V26.65H23.1313V40.0433Z" fill="white"/>
</svg>
